<svg id="Layer_2" data-name="Layer 2" xmlns="http://www.w3.org/2000/svg" viewBox="0 0 211.42 80"><title>Queens and canons logo</title><path d="M79.83,65.94a19.09,19.09,0,0,1-8.71,2.45c-1.31.06-4.52.09-15.12-4.28-7.24-3-8.49-4.13-11.77-4.12a17,17,0,0,0-9.47,3.2c2.13-4.08,4.54-5.7,6.42-6.41,3.62-1.37,6.23.27,10.84-1.07a18.18,18.18,0,0,0,6.27-3.51c1.77-1.52,5.44-4.64,5-8a7.13,7.13,0,0,1-.15-3,6.73,6.73,0,0,1,1.37-2.6A19.65,19.65,0,0,0,67.45,33a9,9,0,0,0-.15-5.35,9.22,9.22,0,0,0-4-4.74,9.11,9.11,0,0,1,3.57,2.26,9.26,9.26,0,0,1,1.34,1.77,7.2,7.2,0,0,0,1.37-2.44c.18-.55,1.24-3.78-.78-6.12A5.07,5.07,0,0,0,64,16.5c-.2.05-1.77.47-2.14,1.58-.19.58.09.91-.25,1.58s-.68.71-.71,1.22.25.66.15.81c-.22.34-1.85-.39-2.55-.66-1.86-.71-2.26-.08-6.82-.1-3.69,0-4.57-.44-7,.1a14.9,14.9,0,0,0-2.54.82,4.59,4.59,0,0,0-.61-3.31,4.3,4.3,0,0,0-4.23-1.94C34.8,17.06,34,20,34,20.22c-.66,2.55,1,4.92.71,5s-1.08-1.14-1.63-2.7a6.84,6.84,0,0,1-.31-5,5.43,5.43,0,0,1,4.49-3.47,4.92,4.92,0,0,1,2.95.87l-.31-4.84L46,17.52l5.5-9.68,6.22,10,5.5-6.77L63,15.53a6.28,6.28,0,0,1,4.84.05,6.64,6.64,0,0,1,3.36,4.74c.21,1.11-.08,1.27.15,2.34a7.83,7.83,0,0,0,2.65,4c2.92,2.83,2.13,9.06,1.73,12.12a24.54,24.54,0,0,1-7.84,14.82A23.78,23.78,0,0,1,53.3,59.38c1.16.67,2.93,1.65,5.14,2.75A43,43,0,0,0,68.17,66a22.47,22.47,0,0,0,6,.76A28.42,28.42,0,0,0,79.83,65.94Z" style="fill:white"/><circle cx="39.73" cy="9.97" r="1.32" style="fill:white"/><circle cx="51.53" cy="7.37" r="1.57" style="fill:white"/><circle cx="63.38" cy="10.41" r="1.32" style="fill:white"/><path d="M39.19,23.68c-.23-.26-3.15.95-4.53,3.61a8.27,8.27,0,0,0-.2,6.47c1,2.58,2.58,2.8,4.27,6a15.32,15.32,0,0,1,1.43,3.92,3.87,3.87,0,0,0,.56-1.53c.23-1.77-1-3-2.44-5.29-1.75-2.79-2.63-4.19-2.55-6a10.26,10.26,0,0,1,1.68-4.58C38.42,24.55,39.33,23.84,39.19,23.68Z" style="fill:white"/><path d="M58,29.18a5.2,5.2,0,0,0-2.08,3.15,5.49,5.49,0,0,0,.25,3.82,16.11,16.11,0,0,1,.25-2.44,10.67,10.67,0,0,1,.36-1.22c.23.18,1.64,1.24,2.9.76.69-.26,1-.87,1.68-2a12.44,12.44,0,0,0,1.12-2.6A5.35,5.35,0,0,0,58,29.18Zm.93,3.15a1.41,1.41,0,0,1-.86-2.52,1.32,1.32,0,0,1,.43.69c0,.42.19.77.49.73s.2-.8.2-1.19a.68.68,0,0,1,.21-.45,1.4,1.4,0,0,1,.94,1.32A1.41,1.41,0,0,1,58.91,32.33Z" style="fill:white"/><path d="M45.3,29.13a5.34,5.34,0,0,0-4.43,0,14.06,14.06,0,0,1,1.33,1.73C43,32,43,32.49,43.52,32.79s1.38.42,3.11-.5A5.31,5.31,0,0,1,47.19,36a9.91,9.91,0,0,0,.4-1.63,6.25,6.25,0,0,0,.11-2.49A4.57,4.57,0,0,0,45.3,29.13Zm-.46,2.92a1.22,1.22,0,0,1-.7-2.22,1.08,1.08,0,0,1,.27.68c0,.42.07.78.38.79s.31-.76.37-1.14a.7.7,0,0,1,.27-.4,1.22,1.22,0,0,1-.59,2.29Z" style="fill:white"/><path d="M42.81,40.53a6.77,6.77,0,0,0-1.73,4.89,6.46,6.46,0,0,0,3.41,5.3,6,6,0,0,0,5.34.2A4.63,4.63,0,0,1,51,50.36a4.89,4.89,0,0,1,2.24,0,22.07,22.07,0,0,0,3.56.41c1.3,0,1.65-.43,2.29-.31s.69.75,1.28.87c1.21.26,2.95-2.05,3.56-4.28.36-1.32.32-2.6,0-2.7s-.67.84-1.22.77c-.37,0-.59-.51-.72-.77-.42-.87-.08-1.35-.3-2.14C61.37,41,60.14,40.33,60,40.43s.54.73,1.07,1.94a6.17,6.17,0,0,1,.66,3.46,5,5,0,0,1-3,3.72,4.9,4.9,0,0,1-4.49-.36,3.44,3.44,0,0,1-1.32-1.58c-.29-.76-.37-1.9.15-2.24.21-.13.36,0,.92,0a3.87,3.87,0,0,0,2.55-.51,2.31,2.31,0,0,0,.71-1.17,4.73,4.73,0,0,0-.2-3.26A3.82,3.82,0,0,1,56.76,43c-.21.33-.37.39-.46.41-.36.06-.57-.38-1.22-.77a2.1,2.1,0,0,0-1.17-.41,6.5,6.5,0,0,0-1.73.77,1.07,1.07,0,0,1-.56.15,1.27,1.27,0,0,1-.67-.25,3.61,3.61,0,0,0-1.37-.72,3.32,3.32,0,0,0-1.83.72c-.29.17-.52.34-.72.25s-.28-.47-.3-.71c-.16-1.52.08-2.55,0-2.6a2.88,2.88,0,0,0-.92,2.34,3.56,3.56,0,0,0,1,2.35c.87.85,2.34,1.33,3.11.91.12-.07.38-.24.61-.15,0,0,.25.11.35.61A3.79,3.79,0,0,1,50.34,49c-1.27,1.54-4.56,1.24-6.36-.36a5.73,5.73,0,0,1-1.68-3.41A8.18,8.18,0,0,1,42.81,40.53Z" style="fill:white"/><path d="M45.15,52.2a7.84,7.84,0,0,0,1.58,2.44,7.5,7.5,0,0,0,4.53,2.29,6.3,6.3,0,0,0,4.18-.81c0-.12-1,.13-2.75,0a11,11,0,0,1-4-1A9.8,9.8,0,0,1,45.15,52.2Z" style="fill:white"/><path d="M89.67,61.28l-1,1.28a5.84,5.84,0,0,1-1.41-1,3.54,3.54,0,0,1-1.12.7,3.92,3.92,0,0,1-1.4.22,3.07,3.07,0,0,1-2.43-.91A2.34,2.34,0,0,1,81.67,60a2.43,2.43,0,0,1,.49-1.5,4,4,0,0,1,1.48-1.15,4.63,4.63,0,0,1-.66-1,2.14,2.14,0,0,1-.23-.9,1.68,1.68,0,0,1,.63-1.33,2.63,2.63,0,0,1,1.79-.55,2.51,2.51,0,0,1,1.75.57,1.83,1.83,0,0,1,.63,1.4,1.78,1.78,0,0,1-.31,1A4.39,4.39,0,0,1,86,57.58l1.2,1.58a4.49,4.49,0,0,0,.37-1l1.5.34a9.74,9.74,0,0,1-.39,1.17,2.89,2.89,0,0,1-.36.61,6,6,0,0,0,.72.57A4.94,4.94,0,0,0,89.67,61.28Zm-5.17-2.9a2.15,2.15,0,0,0-.85.7,1.42,1.42,0,0,0-.29.83,1.12,1.12,0,0,0,.36.87,1.26,1.26,0,0,0,.94.34,1.93,1.93,0,0,0,.75-.15,3,3,0,0,0,.78-.51Zm.65-1.8.45-.34a1,1,0,0,0,.5-.76.72.72,0,0,0-.24-.55,1.07,1.07,0,0,0-1.27,0,.58.58,0,0,0-.22.45,1.24,1.24,0,0,0,.37.75Z" style="fill:white"/><path d="M99.55,57.92l-1.64.3a1.19,1.19,0,0,0-.37-.74,1.18,1.18,0,0,0-.76-.25,1.27,1.27,0,0,0-1,.43,2.23,2.23,0,0,0-.37,1.43,2.54,2.54,0,0,0,.38,1.58,1.24,1.24,0,0,0,1,.46,1.12,1.12,0,0,0,.78-.27,1.61,1.61,0,0,0,.42-.92l1.63.27a2.9,2.9,0,0,1-1,1.7,3,3,0,0,1-1.93.57,2.88,2.88,0,0,1-2.2-.87,3.38,3.38,0,0,1-.81-2.4,3.34,3.34,0,0,1,.82-2.41,2.88,2.88,0,0,1,2.22-.87,3,3,0,0,1,1.82.49A2.76,2.76,0,0,1,99.55,57.92Z" style="fill:white"/><path d="M102,58l-1.5-.27a2.36,2.36,0,0,1,.87-1.34,3.2,3.2,0,0,1,1.84-.44,4,4,0,0,1,1.65.26,1.67,1.67,0,0,1,.77.67,3.52,3.52,0,0,1,.22,1.48l0,1.94A7,7,0,0,0,106,61.5a3.29,3.29,0,0,0,.3.84h-1.64a4,4,0,0,1-.16-.49l-.06-.2a2.78,2.78,0,0,1-.91.62,2.56,2.56,0,0,1-1,.21,2.16,2.16,0,0,1-1.53-.53,1.74,1.74,0,0,1-.55-1.32,1.77,1.77,0,0,1,.25-1,1.69,1.69,0,0,1,.71-.64,6.15,6.15,0,0,1,1.32-.38,9.13,9.13,0,0,0,1.61-.41v-.17a.86.86,0,0,0-.24-.68,1.43,1.43,0,0,0-.89-.2A1,1,0,0,0,102,58Zm2.22,1.35c-.21.07-.55.15-1,.25a3.18,3.18,0,0,0-.9.29.7.7,0,0,0-.33.59.83.83,0,0,0,.26.6.92.92,0,0,0,.66.25,1.48,1.48,0,0,0,.86-.29,1.12,1.12,0,0,0,.4-.55,3.52,3.52,0,0,0,.06-.81Z" style="fill:white"/><path d="M113.22,62.34h-1.66v-3.2a5,5,0,0,0-.1-1.31.93.93,0,0,0-.35-.47,1,1,0,0,0-.57-.16,1.28,1.28,0,0,0-.77.24,1.12,1.12,0,0,0-.47.62,5.15,5.15,0,0,0-.13,1.44v2.84h-1.66V56.07h1.54V57a2.54,2.54,0,0,1,2.07-1.06,2.51,2.51,0,0,1,1,.2,1.76,1.76,0,0,1,.69.5,1.94,1.94,0,0,1,.32.7,5.23,5.23,0,0,1,.09,1.11Z" style="fill:white"/><path d="M114.52,59.12a3.4,3.4,0,0,1,.41-1.6,2.73,2.73,0,0,1,1.15-1.18,3.44,3.44,0,0,1,1.67-.41,3.17,3.17,0,0,1,2.33.92,3.46,3.46,0,0,1,0,4.69,3.08,3.08,0,0,1-2.31.94,3.63,3.63,0,0,1-1.64-.39A2.68,2.68,0,0,1,114.93,61,3.81,3.81,0,0,1,114.52,59.12Zm1.7.09a2.08,2.08,0,0,0,.44,1.42,1.42,1.42,0,0,0,1.09.5,1.39,1.39,0,0,0,1.09-.5,2.07,2.07,0,0,0,.44-1.44,2,2,0,0,0-.44-1.41,1.39,1.39,0,0,0-1.09-.5,1.42,1.42,0,0,0-1.09.5A2.09,2.09,0,0,0,116.22,59.21Z" style="fill:white"/><path d="M128,62.34h-1.66v-3.2a5,5,0,0,0-.1-1.31.93.93,0,0,0-.35-.47,1,1,0,0,0-.57-.16,1.28,1.28,0,0,0-.77.24,1.12,1.12,0,0,0-.47.62,5.15,5.15,0,0,0-.13,1.44v2.84h-1.66V56.07h1.54V57a2.54,2.54,0,0,1,2.07-1.06,2.51,2.51,0,0,1,1,.2,1.76,1.76,0,0,1,.69.5,1.94,1.94,0,0,1,.32.7,5.23,5.23,0,0,1,.09,1.11Z" style="fill:white"/><path d="M129.08,60.55l1.66-.25a1.21,1.21,0,0,0,.44.73,1.4,1.4,0,0,0,.9.25,1.71,1.71,0,0,0,1-.23.52.52,0,0,0,.22-.45.43.43,0,0,0-.12-.31,1.34,1.34,0,0,0-.55-.22,8.64,8.64,0,0,1-2.55-.81,1.6,1.6,0,0,1-.74-1.41,1.72,1.72,0,0,1,.64-1.36,3,3,0,0,1,2-.56,3.47,3.47,0,0,1,1.91.42,2.13,2.13,0,0,1,.86,1.24l-1.56.29a1,1,0,0,0-.38-.56,1.41,1.41,0,0,0-.8-.2,1.72,1.72,0,0,0-.94.19.37.37,0,0,0,0,.63,6.06,6.06,0,0,0,1.54.47,4.57,4.57,0,0,1,1.85.74,1.5,1.5,0,0,1,.52,1.23,1.89,1.89,0,0,1-.72,1.48,3.2,3.2,0,0,1-2.13.62,3.43,3.43,0,0,1-2-.52A2.4,2.4,0,0,1,129.08,60.55Z" style="fill:white"/><path d="M139.16,60.55l1.66-.25a1.2,1.2,0,0,0,.43.73,1.45,1.45,0,0,0,.91.25,1.71,1.71,0,0,0,1-.23.55.55,0,0,0,.22-.45.43.43,0,0,0-.12-.31,1.34,1.34,0,0,0-.56-.22,8.65,8.65,0,0,1-2.54-.81,1.58,1.58,0,0,1-.74-1.41,1.72,1.72,0,0,1,.64-1.36,3,3,0,0,1,2-.56,3.5,3.5,0,0,1,1.92.42,2.18,2.18,0,0,1,.86,1.24l-1.57.29a.9.9,0,0,0-.38-.56,1.37,1.37,0,0,0-.8-.2,1.68,1.68,0,0,0-.93.19.37.37,0,0,0-.19.33.35.35,0,0,0,.16.3,6.2,6.2,0,0,0,1.55.47,4.63,4.63,0,0,1,1.85.74,1.5,1.5,0,0,1,.52,1.23,1.89,1.89,0,0,1-.72,1.48,3.2,3.2,0,0,1-2.13.62,3.49,3.49,0,0,1-2-.52A2.42,2.42,0,0,1,139.16,60.55Z" style="fill:white"/><path d="M147.7,58l-1.51-.27a2.32,2.32,0,0,1,.88-1.34,3.18,3.18,0,0,1,1.84-.44,4,4,0,0,1,1.65.26,1.64,1.64,0,0,1,.76.67,3.33,3.33,0,0,1,.23,1.48l0,1.94a7,7,0,0,0,.08,1.22,3.29,3.29,0,0,0,.3.84h-1.64a4,4,0,0,1-.16-.49l-.06-.2a2.89,2.89,0,0,1-.91.62,2.56,2.56,0,0,1-1,.21,2.14,2.14,0,0,1-1.53-.53,1.74,1.74,0,0,1-.56-1.32,1.78,1.78,0,0,1,.26-1A1.64,1.64,0,0,1,147,59a5.82,5.82,0,0,1,1.32-.38,9.13,9.13,0,0,0,1.61-.41v-.17a.86.86,0,0,0-.24-.68,1.45,1.45,0,0,0-.89-.2,1,1,0,0,0-1.09.78Zm2.22,1.35c-.21.07-.55.15-1,.25a3.18,3.18,0,0,0-.9.29.7.7,0,0,0-.33.59.83.83,0,0,0,.26.6.89.89,0,0,0,.66.25,1.48,1.48,0,0,0,.86-.29,1,1,0,0,0,.39-.55,2.9,2.9,0,0,0,.07-.81Z" style="fill:white"/><path d="M152.45,56.07h.92V55.6a3.16,3.16,0,0,1,.17-1.18,1.3,1.3,0,0,1,.62-.63,2.29,2.29,0,0,1,1.14-.25,4.64,4.64,0,0,1,1.39.21l-.22,1.16a3.49,3.49,0,0,0-.76-.09.69.69,0,0,0-.52.16,1,1,0,0,0-.16.65v.44h1.24v1.31H155v5h-1.66v-5h-.92Z" style="fill:white"/><path d="M158.44,58l-1.5-.27a2.36,2.36,0,0,1,.87-1.34,3.2,3.2,0,0,1,1.84-.44,4,4,0,0,1,1.65.26,1.67,1.67,0,0,1,.77.67,3.37,3.37,0,0,1,.22,1.48l0,1.94a7,7,0,0,0,.08,1.22,3.29,3.29,0,0,0,.3.84H161c0-.11-.1-.28-.16-.49l-.06-.2a2.78,2.78,0,0,1-.91.62,2.53,2.53,0,0,1-1,.21,2.16,2.16,0,0,1-1.53-.53,1.74,1.74,0,0,1-.55-1.32,1.77,1.77,0,0,1,.25-1,1.69,1.69,0,0,1,.71-.64,6.15,6.15,0,0,1,1.32-.38,9.13,9.13,0,0,0,1.61-.41v-.17a.9.9,0,0,0-.23-.68,1.49,1.49,0,0,0-.9-.2,1,1,0,0,0-1.09.78Zm2.22,1.35c-.21.07-.55.15-1,.25a3.18,3.18,0,0,0-.9.29.69.69,0,0,0-.32.59.82.82,0,0,0,.25.6.93.93,0,0,0,.67.25,1.48,1.48,0,0,0,.85-.29,1.12,1.12,0,0,0,.4-.55,3.52,3.52,0,0,0,.06-.81Z" style="fill:white"/><path d="M165.51,62.34h-1.66V56.07h1.54V57a2.86,2.86,0,0,1,.71-.83,1.34,1.34,0,0,1,.72-.2,2.17,2.17,0,0,1,1.09.31l-.51,1.45a1.47,1.47,0,0,0-.78-.27.91.91,0,0,0-.59.19,1.32,1.32,0,0,0-.38.69,10.06,10.06,0,0,0-.14,2.1Z" style="fill:white"/><path d="M168.63,55.22V53.69h1.65v1.53Zm0,7.12V56.07h1.65v6.27Z" style="fill:white"/><path d="M171.4,60.55l1.66-.25a1.25,1.25,0,0,0,.43.73,1.45,1.45,0,0,0,.91.25,1.71,1.71,0,0,0,1-.23.55.55,0,0,0,.22-.45.43.43,0,0,0-.12-.31,1.34,1.34,0,0,0-.56-.22,8.65,8.65,0,0,1-2.54-.81,1.6,1.6,0,0,1-.74-1.41,1.72,1.72,0,0,1,.64-1.36,3,3,0,0,1,2-.56,3.49,3.49,0,0,1,1.91.42,2.18,2.18,0,0,1,.86,1.24l-1.57.29a.9.9,0,0,0-.38-.56,1.37,1.37,0,0,0-.8-.2,1.7,1.7,0,0,0-.93.19.37.37,0,0,0-.19.33.35.35,0,0,0,.16.3,6.2,6.2,0,0,0,1.55.47,4.63,4.63,0,0,1,1.85.74,1.5,1.5,0,0,1,.52,1.23,1.89,1.89,0,0,1-.72,1.48,3.2,3.2,0,0,1-2.13.62,3.49,3.49,0,0,1-2-.52A2.42,2.42,0,0,1,171.4,60.55Z" style="fill:white"/><path d="M94.26,72.38l.84-4h1.23l.5,0a1.14,1.14,0,0,1,.45.17.79.79,0,0,1,.29.31,1.05,1.05,0,0,1,.1.44,1,1,0,0,1-.18.58,1.06,1.06,0,0,1-.56.38,1,1,0,0,1,.49.32.88.88,0,0,1,.16.5,1.13,1.13,0,0,1-.19.63,1.25,1.25,0,0,1-.5.47,1.47,1.47,0,0,1-.7.16Zm.63-.45h.91l.49,0a1.17,1.17,0,0,0,.41-.15.81.81,0,0,0,.33-.63.52.52,0,0,0-.17-.43,1.08,1.08,0,0,0-.67-.15h-1Zm.38-1.83h.81a1.41,1.41,0,0,0,.84-.19.63.63,0,0,0,.25-.53.58.58,0,0,0-.08-.3.39.39,0,0,0-.21-.17,1.37,1.37,0,0,0-.5-.06h-.85Z" style="fill:white"/><path d="M97.92,72.38l.6-2.88H99l-.12.59a2,2,0,0,1,.43-.5.72.72,0,0,1,.44-.16.85.85,0,0,1,.36.11l-.2.45a.47.47,0,0,0-.28-.09.77.77,0,0,0-.53.29,2.27,2.27,0,0,0-.43,1l-.24,1.15Z" style="fill:white"/><path d="M99.76,72.38l.6-2.88h.49l-.6,2.88Zm.72-3.43.11-.55h.49L101,69Z" style="fill:white"/><path d="M101,72.38l.61-2.88h.44l-.1.5a2.15,2.15,0,0,1,.54-.43,1.1,1.1,0,0,1,.52-.14.75.75,0,0,1,.55.19.69.69,0,0,1,.2.51,2.58,2.58,0,0,1-.07.51l-.37,1.74h-.49l.38-1.83a2,2,0,0,0,.06-.39.31.31,0,0,0-.1-.24.44.44,0,0,0-.28-.08,1,1,0,0,0-.68.27,1.68,1.68,0,0,0-.43.93l-.28,1.34Z" style="fill:white"/><path d="M104.09,72.65l.49,0a.62.62,0,0,0,0,.26.38.38,0,0,0,.15.13.88.88,0,0,0,.35.06.79.79,0,0,0,.64-.24,1.9,1.9,0,0,0,.24-.67l0-.23a1.18,1.18,0,0,1-.82.38.92.92,0,0,1-.73-.32,1.28,1.28,0,0,1-.3-.91,1.88,1.88,0,0,1,.23-.9,1.75,1.75,0,0,1,.56-.61,1.17,1.17,0,0,1,.66-.21,1,1,0,0,1,.87.54l.1-.47h.45l-.58,2.78a2.3,2.3,0,0,1-.25.72,1,1,0,0,1-.43.4,1.44,1.44,0,0,1-.64.14,1.8,1.8,0,0,1-.6-.09.75.75,0,0,1-.37-.26.64.64,0,0,1-.13-.4A.78.78,0,0,1,104.09,72.65Zm.61-1.54a1.25,1.25,0,0,0,.06.44.65.65,0,0,0,.23.32.51.51,0,0,0,.34.11.78.78,0,0,0,.48-.17,1.19,1.19,0,0,0,.39-.52,2,2,0,0,0,.14-.68.8.8,0,0,0-.19-.57.65.65,0,0,0-.49-.21.73.73,0,0,0-.35.09,1.1,1.1,0,0,0-.31.3,1.36,1.36,0,0,0-.22.47A1.75,1.75,0,0,0,104.7,71.11Z" style="fill:white"/><path d="M107.19,72.38l.61-2.88h.49l-.6,2.88Zm.72-3.43.12-.55h.49l-.12.55Z" style="fill:white"/><path d="M108.45,72.38l.6-2.88h.45l-.11.5a2.37,2.37,0,0,1,.55-.43,1.1,1.1,0,0,1,.52-.14.77.77,0,0,1,.55.19.69.69,0,0,1,.2.51,3.67,3.67,0,0,1-.07.51l-.37,1.74h-.49l.38-1.83a2,2,0,0,0,.06-.39.35.35,0,0,0-.1-.24.48.48,0,0,0-.29-.08,1,1,0,0,0-.67.27,1.68,1.68,0,0,0-.44.93l-.28,1.34Z" style="fill:white"/><path d="M111.52,72.65l.5,0a.62.62,0,0,0,0,.26.32.32,0,0,0,.15.13.83.83,0,0,0,.34.06.77.77,0,0,0,.64-.24,1.56,1.56,0,0,0,.24-.67l0-.23a1.16,1.16,0,0,1-.82.38.94.94,0,0,1-.73-.32,1.28,1.28,0,0,1-.29-.91,1.77,1.77,0,0,1,.23-.9,1.73,1.73,0,0,1,.55-.61,1.22,1.22,0,0,1,.66-.21A1,1,0,0,1,114,70l.1-.47h.45l-.58,2.78a2.58,2.58,0,0,1-.25.72,1.1,1.1,0,0,1-.43.4,1.47,1.47,0,0,1-.64.14,1.76,1.76,0,0,1-.6-.09.78.78,0,0,1-.38-.26.7.7,0,0,1-.12-.4A.71.71,0,0,1,111.52,72.65Zm.62-1.54a1.61,1.61,0,0,0,0,.44.73.73,0,0,0,.24.32.51.51,0,0,0,.33.11.78.78,0,0,0,.48-.17,1.19,1.19,0,0,0,.39-.52,1.78,1.78,0,0,0,.15-.68.81.81,0,0,0-.2-.57.64.64,0,0,0-.49-.21.69.69,0,0,0-.34.09,1.12,1.12,0,0,0-.32.3,1.36,1.36,0,0,0-.22.47A1.64,1.64,0,0,0,112.14,71.11Z" style="fill:white"/><path d="M116,73.5l0-.46a1,1,0,0,0,.3,0,.36.36,0,0,0,.24-.07,1.07,1.07,0,0,0,.26-.33l.16-.29-.48-2.89H117l.22,1.46c0,.29.08.57.11.86l1.29-2.32h.52l-1.84,3.27a2,2,0,0,1-.48.63.72.72,0,0,1-.47.16A1,1,0,0,1,116,73.5Z" style="fill:white"/><path d="M119.07,71.29a2,2,0,0,1,.5-1.4,1.36,1.36,0,0,1,1.08-.46,1.14,1.14,0,0,1,.84.33,1.2,1.2,0,0,1,.32.88,2.17,2.17,0,0,1-.2.92,1.52,1.52,0,0,1-1.36.89,1.34,1.34,0,0,1-.61-.14,1,1,0,0,1-.42-.41A1.23,1.23,0,0,1,119.07,71.29Zm.49-.05a.89.89,0,0,0,.2.62.64.64,0,0,0,.5.21.7.7,0,0,0,.31-.07.85.85,0,0,0,.29-.19,1.29,1.29,0,0,0,.22-.3,1.14,1.14,0,0,0,.15-.36,1.61,1.61,0,0,0,.09-.51.86.86,0,0,0-.2-.61.61.61,0,0,0-.49-.22.89.89,0,0,0-.43.11,1.13,1.13,0,0,0-.34.32,1.53,1.53,0,0,0-.23.5A2.4,2.4,0,0,0,119.56,71.24Z" style="fill:white"/><path d="M124.05,71.86a1.45,1.45,0,0,1-1.06.59.76.76,0,0,1-.54-.19.62.62,0,0,1-.21-.47,3.16,3.16,0,0,1,.1-.63l.35-1.66h.49l-.39,1.84a2.29,2.29,0,0,0-.05.36.33.33,0,0,0,.1.26.44.44,0,0,0,.29.09,1,1,0,0,0,.41-.1,1.13,1.13,0,0,0,.34-.28,1.55,1.55,0,0,0,.23-.4,3.36,3.36,0,0,0,.14-.53l.26-1.24H125l-.6,2.88h-.46Z" style="fill:white"/><path d="M128.72,71.33l.5,0a1.74,1.74,0,0,1-.53.81,1.28,1.28,0,0,1-.78.26,1,1,0,0,1-.76-.3,1.18,1.18,0,0,1-.29-.86,2.56,2.56,0,0,1,.18-.93,1.58,1.58,0,0,1,.54-.69,1.37,1.37,0,0,1,.8-.24,1,1,0,0,1,.74.26.94.94,0,0,1,.27.7l-.49,0a.59.59,0,0,0-.15-.43.6.6,0,0,0-.42-.15.78.78,0,0,0-.51.18,1.22,1.22,0,0,0-.34.57,2.51,2.51,0,0,0-.13.74.79.79,0,0,0,.17.55.5.5,0,0,0,.4.19.72.72,0,0,0,.46-.18A1.22,1.22,0,0,0,128.72,71.33Z" style="fill:white"/><path d="M129.48,72.38l.83-4h.49l-.83,4Z" style="fill:white"/><path d="M130.84,71.29a2,2,0,0,1,.5-1.4,1.36,1.36,0,0,1,1.08-.46,1.14,1.14,0,0,1,.84.33,1.2,1.2,0,0,1,.32.88,2.17,2.17,0,0,1-.2.92,1.5,1.5,0,0,1-.58.66,1.48,1.48,0,0,1-.78.23,1.37,1.37,0,0,1-.61-.14,1,1,0,0,1-.42-.41A1.23,1.23,0,0,1,130.84,71.29Zm.49-.05a.89.89,0,0,0,.2.62.64.64,0,0,0,.5.21.7.7,0,0,0,.31-.07.85.85,0,0,0,.29-.19,1.7,1.7,0,0,0,.23-.3,1.9,1.9,0,0,0,.23-.87.86.86,0,0,0-.2-.61.61.61,0,0,0-.49-.22.89.89,0,0,0-.43.11,1.13,1.13,0,0,0-.34.32,1.53,1.53,0,0,0-.23.5A2.4,2.4,0,0,0,131.33,71.24Z" style="fill:white"/><path d="M133.9,71.4l.49,0a.8.8,0,0,0,.07.36.47.47,0,0,0,.24.24.76.76,0,0,0,.41.1.77.77,0,0,0,.49-.13.41.41,0,0,0,.16-.31.34.34,0,0,0-.1-.24,1.48,1.48,0,0,0-.49-.28,3.39,3.39,0,0,1-.5-.24.75.75,0,0,1-.27-.26.6.6,0,0,1-.1-.35.76.76,0,0,1,.28-.59,1.1,1.1,0,0,1,.76-.24,1.21,1.21,0,0,1,.83.25.88.88,0,0,1,.29.66l-.48,0a.56.56,0,0,0-.19-.42.72.72,0,0,0-.49-.15.62.62,0,0,0-.4.12.34.34,0,0,0-.14.25.3.3,0,0,0,.13.24,1.76,1.76,0,0,0,.42.22A3.09,3.09,0,0,1,136,71a.73.73,0,0,1,.23.55.77.77,0,0,1-.13.43,1,1,0,0,1-.4.33,1.56,1.56,0,0,1-.64.12,1.4,1.4,0,0,1-.85-.25A.88.88,0,0,1,133.9,71.4Z" style="fill:white"/><path d="M138.76,71.4l.48,0a1.43,1.43,0,0,1-.48.68,1.31,1.31,0,0,1-.88.32,1.18,1.18,0,0,1-.59-.15,1,1,0,0,1-.41-.43,1.47,1.47,0,0,1-.14-.64,2,2,0,0,1,.22-.92,1.56,1.56,0,0,1,.57-.66,1.34,1.34,0,0,1,.75-.22,1.11,1.11,0,0,1,.83.32,1.24,1.24,0,0,1,.31.88,3.28,3.28,0,0,1,0,.43h-2.13a1.11,1.11,0,0,0,.18.77.55.55,0,0,0,.45.22.88.88,0,0,0,.5-.17A1.09,1.09,0,0,0,138.76,71.4Zm-1.43-.71H139v-.11a.81.81,0,0,0-.18-.57.63.63,0,0,0-.48-.2.89.89,0,0,0-.57.22A1.23,1.23,0,0,0,137.33,70.69Z" style="fill:white"/><path d="M139.74,72.38l.6-2.88h.44l-.13.59a2,2,0,0,1,.44-.5.7.7,0,0,1,.44-.16.9.9,0,0,1,.36.11l-.2.45a.49.49,0,0,0-.28-.09.75.75,0,0,0-.53.29,2.07,2.07,0,0,0-.43,1l-.25,1.15Z" style="fill:white"/><path d="M144.29,72l-.08.41a1.37,1.37,0,0,1-.34,0,.69.69,0,0,1-.47-.14.35.35,0,0,1-.13-.3,2.67,2.67,0,0,1,.07-.44l.35-1.67h-.39l.08-.38h.39l.15-.71.56-.34-.22,1h.49l-.09.38h-.48l-.33,1.59a3.36,3.36,0,0,0-.06.37.14.14,0,0,0,.05.13.22.22,0,0,0,.16,0A.85.85,0,0,0,144.29,72Z" style="fill:white"/><path d="M144.78,71.29a2,2,0,0,1,.49-1.4,1.39,1.39,0,0,1,1.08-.46,1.11,1.11,0,0,1,.84.33,1.16,1.16,0,0,1,.32.88,2,2,0,0,1-.2.92,1.42,1.42,0,0,1-.57.66,1.5,1.5,0,0,1-.78.23,1.41,1.41,0,0,1-.62-.14,1.1,1.1,0,0,1-.42-.41A1.22,1.22,0,0,1,144.78,71.29Zm.49-.05a.89.89,0,0,0,.19.62.66.66,0,0,0,.5.21.67.67,0,0,0,.31-.07.77.77,0,0,0,.29-.19,1.33,1.33,0,0,0,.23-.3,1.94,1.94,0,0,0,.15-.36,1.61,1.61,0,0,0,.09-.51.86.86,0,0,0-.2-.61.63.63,0,0,0-.5-.22.88.88,0,0,0-.42.11,1,1,0,0,0-.34.32,1.35,1.35,0,0,0-.23.5A1.88,1.88,0,0,0,145.27,71.24Z" style="fill:white"/><path d="M149.34,72.38l.6-2.88h.45l-.11.5a2.35,2.35,0,0,1,.54-.43,1.13,1.13,0,0,1,.52-.14.75.75,0,0,1,.55.19.66.66,0,0,1,.2.51,2.58,2.58,0,0,1-.07.51l-.37,1.74h-.49l.39-1.83a2.73,2.73,0,0,0,0-.39.31.31,0,0,0-.1-.24.44.44,0,0,0-.28-.08,1,1,0,0,0-.68.27,1.75,1.75,0,0,0-.43.93l-.28,1.34Z" style="fill:white"/><path d="M154.38,72a2.15,2.15,0,0,1-.49.32,1.25,1.25,0,0,1-.51.1.88.88,0,0,1-.64-.24.84.84,0,0,1-.13-1,.92.92,0,0,1,.29-.3,1.34,1.34,0,0,1,.44-.16,4.88,4.88,0,0,1,.63,0,2,2,0,0,0,.67-.1,1.16,1.16,0,0,0,.06-.33.32.32,0,0,0-.13-.27.78.78,0,0,0-.5-.14.88.88,0,0,0-.51.14.84.84,0,0,0-.29.39l-.49,0a1.27,1.27,0,0,1,.48-.66,1.45,1.45,0,0,1,.83-.23,1.31,1.31,0,0,1,.85.26.59.59,0,0,1,.24.49,2.28,2.28,0,0,1-.07.54l-.16.72a2.57,2.57,0,0,0-.07.55,1.85,1.85,0,0,0,.06.39h-.5A1.48,1.48,0,0,1,154.38,72Zm.18-1.11a.71.71,0,0,1-.22.06L154,71a3.28,3.28,0,0,0-.61.1.54.54,0,0,0-.27.18.5.5,0,0,0-.09.29.45.45,0,0,0,.15.34.6.6,0,0,0,.4.13.88.88,0,0,0,.47-.13,1,1,0,0,0,.36-.36A1.84,1.84,0,0,0,154.56,70.92Z" style="fill:white"/><path d="M156.68,72l-.08.41a1.37,1.37,0,0,1-.34,0,.69.69,0,0,1-.47-.14.35.35,0,0,1-.13-.3c0-.06,0-.21.07-.44l.35-1.67h-.39l.08-.38h.39l.15-.71.56-.34-.22,1h.49l-.08.38h-.48l-.34,1.59a3.36,3.36,0,0,0-.06.37.14.14,0,0,0,0,.13.23.23,0,0,0,.16,0A.85.85,0,0,0,156.68,72Z" style="fill:white"/><path d="M159.05,71.86a1.45,1.45,0,0,1-1.06.59.76.76,0,0,1-.54-.19.61.61,0,0,1-.2-.47,3.79,3.79,0,0,1,.09-.63l.35-1.66h.49l-.39,1.84a2.29,2.29,0,0,0,0,.36.36.36,0,0,0,.1.26.45.45,0,0,0,.3.09,1,1,0,0,0,.4-.1,1.13,1.13,0,0,0,.34-.28,1.55,1.55,0,0,0,.23-.4,3.36,3.36,0,0,0,.14-.53l.26-1.24H160l-.6,2.88H159Z" style="fill:white"/><path d="M160.18,72.38l.6-2.88h.44l-.12.59a2,2,0,0,1,.43-.5.72.72,0,0,1,.44-.16.85.85,0,0,1,.36.11l-.2.45a.47.47,0,0,0-.28-.09.77.77,0,0,0-.53.29,2.27,2.27,0,0,0-.43,1l-.24,1.15Z" style="fill:white"/><path d="M164.16,71.4l.48,0a1.43,1.43,0,0,1-.48.68,1.32,1.32,0,0,1-.88.32,1.18,1.18,0,0,1-.59-.15,1,1,0,0,1-.41-.43,1.47,1.47,0,0,1-.14-.64,2,2,0,0,1,.22-.92,1.44,1.44,0,0,1,.57-.66,1.34,1.34,0,0,1,.75-.22,1.13,1.13,0,0,1,.83.32,1.24,1.24,0,0,1,.3.88,3.22,3.22,0,0,1,0,.43h-2.13a.86.86,0,0,0,0,.15.92.92,0,0,0,.18.62.58.58,0,0,0,.46.22.91.91,0,0,0,.5-.17A1.09,1.09,0,0,0,164.16,71.4Zm-1.43-.71h1.62v-.11a.81.81,0,0,0-.18-.57.66.66,0,0,0-.48-.2.93.93,0,0,0-.58.22A1.29,1.29,0,0,0,162.73,70.69Z" style="fill:white"/><path d="M79.9,31.11h5.2v13a4.26,4.26,0,0,0,1.53,1.83,4.65,4.65,0,0,0,3.89.46V31h5.42v18.5a19.81,19.81,0,0,1-4.2,1.06A12.71,12.71,0,0,1,85,50.13a7.78,7.78,0,0,1-3.44-2.29,7.6,7.6,0,0,1-1.68-4Z" style="fill:white"/><path d="M158.92,50.63h-5.2v-13a4.29,4.29,0,0,0-1.52-1.83,4.68,4.68,0,0,0-3.9-.46V50.79h-5.42V32.3a19.3,19.3,0,0,1,4.2-1.07,12.71,12.71,0,0,1,6.72.38,7.91,7.91,0,0,1,3.44,2.29,7.6,7.6,0,0,1,1.68,4Z" style="fill:white"/><path d="M117,37c-.24-.67-1.89-5.11-6.27-6s-7.61,2.4-7.94,2.75a10.63,10.63,0,0,0-.23,13.9c3.29,3.65,8.42,3.2,9,3.13a11.17,11.17,0,0,0,4.28-1.37V45a11.61,11.61,0,0,1-4.51,1.23,6.2,6.2,0,0,1-4.05-.69,5.32,5.32,0,0,1-2.13-3.13h12.14A10,10,0,0,0,117,37Zm-11.77,1.53a3.6,3.6,0,0,1,.31-1.45,3.86,3.86,0,0,1,3.51-2.29,4,4,0,0,1,3.67,3.74Z" style="fill:white"/><path d="M138,37c-.23-.67-1.88-5.11-6.26-6s-7.62,2.4-8,2.75a10.65,10.65,0,0,0-.23,13.9c3.3,3.65,8.43,3.2,9,3.13a11.29,11.29,0,0,0,4.28-1.37V45a11.61,11.61,0,0,1-4.51,1.23,6.19,6.19,0,0,1-4-.69,5.34,5.34,0,0,1-2.14-3.13h12.15A10.06,10.06,0,0,0,138,37Zm-11.76,1.53a3.6,3.6,0,0,1,.31-1.45,3.85,3.85,0,0,1,3.51-2.29,4,4,0,0,1,3.66,3.74Z" style="fill:white"/><path d="M176.91,30.88V36c-1.39-.32-2.59-.54-3.51-.69C171,35,170.33,35,170,35.47a1.35,1.35,0,0,0-.23,1.07c.24,1.08,2.13,1.09,3.9,1.75,2.17.81,5.17,2.92,5.42,5.66a5.91,5.91,0,0,1-2,4.43c-.47.44-1.65,1.41-4.66,1.83A19.72,19.72,0,0,1,162.7,49V43.94c1.28.4,2.66.81,4.13,1.23,2.46.7,3.53,1,4.12.38a1.24,1.24,0,0,0,.38-1.07c-.22-1.26-2.9-1-5.27-2.52-.25-.17-3.44-2.33-3.36-5.65s3.3-5.18,3.59-5.35c1.59-.9,3.09-.91,5-.92A18.72,18.72,0,0,1,176.91,30.88Z" style="fill:white"/></svg>